<svg xmlns="http://www.w3.org/2000/svg" height="40" viewBox="0 96 960 960" width="40"><path d="M479.923 576.333q33.106 0 57.091-23.575Q561 529.182 561 496.077q0-33.106-23.962-57.091Q513.076 415 479.971 415q-33.106 0-56.705 23.962-23.599 23.962-23.599 57.068 0 33.105 23.575 56.704 23.576 23.599 56.681 23.599ZM480 861.334q119.742-109.891 176.871-199.079 57.13-89.187 57.13-158.339 0-106.944-67.705-174.43-67.705-67.487-166.096-67.487t-165.962 67.709q-67.572 67.709-67.572 173.899 0 69.393 57.829 157.857 57.83 88.463 175.505 199.87Zm0 140.336Q309.692 856.236 225.179 732.521q-84.512-123.714-84.512-228.608 0-159.107 102.274-253.51Q345.215 156 479.814 156q134.598 0 237.392 94.495Q820 344.989 820 504.249q0 104.676-84.846 228.353T480 1001.67ZM480 504Z"/></svg>