<svg xmlns="http://www.w3.org/2000/svg" height="40" viewBox="0 96 960 960" width="40"><path d="M608.334 966.333 353 876.999l-172.667 69.334q-32.333 14-60.999-5.167-28.667-19.167-28.667-55.833V324.667q0-23 12.5-40.5t34.5-24.833l215.333-74 255.334 89.667 171.999-69.334q31.667-14.333 61 5 29.333 19.334 29.333 55.333v565.667q0 22.333-13.333 38.166Q844 885.666 824 891.333l-215.666 75ZM572 841.334V371.666l-183.334-62.667V779L572 841.334Zm68 0 124-39.667V324l-124 47.666v469.668Zm-443.334-14L320.667 779V308.999l-124.001 41.334v477.001ZM640 371.666v469.668-469.668Zm-319.333-62.667V779 308.999Z"/></svg>