<svg xmlns="http://www.w3.org/2000/svg" height="48" viewBox="0 96 960 960" width="48"><path d="M166.817 577Q126 577 98 548.817q-28-28.183-28-69T98.183 411q28.183-28 69-28T236 411.183q28 28.183 28 69T235.817 549q-28.183 28-69 28Zm187-171Q313 406 285 377.817q-28-28.183-28-69T285.183 240q28.183-28 69-28T423 240.183q28 28.183 28 69T422.817 378q-28.183 28-69 28Zm252 0Q565 406 537 377.817q-28-28.183-28-69T537.183 240q28.183-28 69-28T675 240.183q28 28.183 28 69T674.817 378q-28.183 28-69 28Zm187 171Q752 577 724 548.817q-28-28.183-28-69T724.183 411q28.183-28 69-28T862 411.183q28 28.183 28 69T861.817 549q-28.183 28-69 28ZM264 991q-44.972 0-73.986-33.608Q161 923.784 161 878q0-43.6 26.5-77.3Q214 767 243 735q21-23 41-47t37-51q30.2-44.6 67.489-83.8 37.289-39.2 91.178-39.2 53.889 0 92.161 39.397Q610.1 592.793 640 639q16 26 35.5 50t41.5 46q30 31 56 65.3t26 77.7q0 45.784-29.014 79.392T696 991q-55.009 0-108-9t-108-9q-55.009 0-108 9t-108 9Z"/></svg>