<svg xmlns="http://www.w3.org/2000/svg" height="40" viewBox="0 96 960 960" width="40"><path d="M480.762 1006q-88.165 0-166.662-33.88t-137.259-92.387q-58.761-58.508-92.634-137.167-33.873-78.66-33.873-166.78 0-88.119 33.844-166.501 33.845-78.383 92.578-136.926 58.733-58.542 137.519-92.784 78.787-34.241 167.051-34.241 88.264 0 166.937 34.108 78.673 34.107 136.709 92.75t91.865 137.197q33.829 78.553 33.829 166.748 0 88.196-33.631 166.653t-91.999 137.056q-58.367 58.598-137.419 92.376Q568.565 1006 480.762 1006Zm-41.095-107.333V819q-34 0-56.769-24.156-22.768-24.157-22.768-58.175v-41.284L165.666 500.667q-4.333 18.14-6.5 36.614Q157 555.756 157 574.398q0 122.272 80.166 217.104 80.167 94.832 202.501 107.165Zm280.333-103q20.191-21.858 36.215-48.325 16.025-26.466 26.703-54.521 10.677-28.055 15.88-57.442Q804 605.993 804 574.145q0-99.702-54.728-182.121Q694.543 309.606 602.667 273v15.66q0 33.769-23.194 57.554Q556.279 370 521.67 370h-82.003v83.034q0 17.633-12.167 27.799Q415.333 491 396.701 491h-79.034v83h245.948q15.688 0 27.37 12.308 11.682 12.309 11.682 28.281V737h39.262q27.071 0 49.018 16.369 21.946 16.369 29.053 42.298Z"/></svg>